<?xml version="1.0" encoding="UTF-8" standalone="no"?>
<!-- Created with Inkscape (http://www.inkscape.org/) -->

<svg
   width="107.93126mm"
   height="44.050621mm"
   viewBox="0 0 107.93126 44.050621"
   version="1.1"
   id="svg1"
   inkscape:version="1.3.2 (091e20e, 2023-11-25)"
   sodipodi:docname="GDS letters only.svg"
   inkscape:export-filename="GDS letters only Small.png"
   inkscape:export-xdpi="21.77"
   inkscape:export-ydpi="21.77"
   xmlns:inkscape="http://www.inkscape.org/namespaces/inkscape"
   xmlns:sodipodi="http://sodipodi.sourceforge.net/DTD/sodipodi-0.dtd"
   xmlns="http://www.w3.org/2000/svg"
   xmlns:svg="http://www.w3.org/2000/svg">
  <sodipodi:namedview
     id="namedview1"
     pagecolor="#ffffff"
     bordercolor="#000000"
     borderopacity="0.25"
     inkscape:showpageshadow="2"
     inkscape:pageopacity="0.0"
     inkscape:pagecheckerboard="0"
     inkscape:deskcolor="#d1d1d1"
     inkscape:document-units="mm"
     inkscape:zoom="1.3453173"
     inkscape:cx="142.71726"
     inkscape:cy="22.671232"
     inkscape:window-width="1920"
     inkscape:window-height="926"
     inkscape:window-x="0"
     inkscape:window-y="25"
     inkscape:window-maximized="0"
     inkscape:current-layer="layer1" />
  <defs
     id="defs1" />
  <g
     inkscape:label="Layer 1"
     inkscape:groupmode="layer"
     id="layer1"
     transform="translate(-48.079801,-103.68936)">
    <path
       style="display:inline;fill:#c0c5c9;fill-opacity:1;stroke-width:0.301546;stroke-dasharray:none"
       d="m 80.448268,103.80158 c 9.834899,0.01 21.110862,0.0745 24.540752,0.0926 l 1.55904,0.008 1.55905,0.008 1.55904,0.008 1.55904,0.008 0.20856,0.0221 0.20857,0.0221 0.20857,0.0221 0.20857,0.0221 c 0.23439,0.0249 0.43937,0.0477 0.63627,0.0717 0.19691,0.024 0.38574,0.049 0.58783,0.0782 0.20208,0.0292 0.41742,0.0626 0.66735,0.1032 0.24992,0.0406 0.53443,0.0885 0.87485,0.1467 0.23706,0.0405 0.44507,0.0778 0.63509,0.11417 0.19002,0.0364 0.36204,0.072 0.52709,0.10932 0.16505,0.0373 0.32313,0.0763 0.48528,0.11942 0.16214,0.0432 0.32835,0.0905 0.50966,0.14447 l 0.0974,0.029 0.0974,0.029 0.0974,0.029 0.0974,0.029 0.10816,-0.0269 0.10816,-0.0269 0.10815,-0.0269 0.10816,-0.0269 c 0.0595,-0.0148 0.12668,-0.0324 0.19718,-0.0517 0.0705,-0.0193 0.14431,-0.0401 0.21705,-0.0613 0.0727,-0.0212 0.14439,-0.0427 0.21058,-0.0632 0.0662,-0.0206 0.12692,-0.0401 0.17779,-0.0575 0.0509,-0.0174 0.11099,-0.0359 0.17609,-0.0546 0.0651,-0.0187 0.13517,-0.0374 0.20595,-0.0552 0.0708,-0.0178 0.14227,-0.0346 0.2102,-0.0494 0.0679,-0.0148 0.13228,-0.0275 0.1888,-0.0371 0.0565,-0.01 0.13013,-0.0222 0.21475,-0.0367 0.0846,-0.0145 0.18026,-0.031 0.28085,-0.0483 0.10058,-0.0173 0.20611,-0.0356 0.31052,-0.0536 0.1044,-0.0181 0.20769,-0.036 0.30377,-0.0526 0.0961,-0.0167 0.2131,-0.0358 0.34229,-0.0561 0.12919,-0.0203 0.27056,-0.0416 0.41538,-0.0629 0.14481,-0.0212 0.29307,-0.0424 0.43603,-0.062 0.14296,-0.0197 0.28062,-0.0379 0.40426,-0.0535 l 0.22478,-0.0283 0.22478,-0.0283 0.22479,-0.0283 0.22478,-0.0283 h 2.67761 2.6776 2.67761 2.6776 2.67761 2.67761 2.6776 2.67762 l 0.21148,0.0195 0.21148,0.0196 0.21148,0.0195 0.21148,0.0195 c 0.11631,0.0107 0.24468,0.0245 0.37711,0.0401 0.13243,0.0156 0.26891,0.0331 0.40145,0.0514 0.13254,0.0183 0.26114,0.0374 0.3778,0.0561 0.11666,0.0187 0.22138,0.0372 0.30617,0.0542 0.20093,0.0403 0.4399,0.0911 0.68858,0.14599 0.24869,0.0548 0.5071,0.11362 0.74694,0.16976 0.23984,0.0561 0.46111,0.10961 0.63551,0.1538 0.1744,0.0442 0.30193,0.0791 0.35429,0.0981 0.10973,0.0398 0.28628,0.11742 0.49049,0.21294 0.20421,0.0955 0.43608,0.20898 0.65643,0.32053 0.22035,0.11156 0.42918,0.22121 0.58732,0.30913 0.15814,0.0879 0.26559,0.15411 0.28317,0.17874 0.006,0.008 0.0222,0.0219 0.0461,0.0388 0.0239,0.0169 0.0556,0.0373 0.0929,0.0599 0.0373,0.0226 0.08,0.0473 0.12614,0.0728 0.0461,0.0255 0.0955,0.0518 0.14592,0.0775 0.13381,0.0683 0.28486,0.16252 0.44612,0.27679 0.16126,0.11428 0.33271,0.24857 0.50734,0.39689 0.17461,0.14833 0.35239,0.31069 0.52629,0.48111 0.1739,0.17042 0.34392,0.34889 0.50302,0.52944 0.17502,0.19861 0.32233,0.37024 0.45073,0.5273 0.1284,0.15706 0.23789,0.29955 0.33727,0.4399 0.0994,0.14035 0.18863,0.27856 0.27658,0.42705 0.0879,0.14849 0.17457,0.30725 0.26867,0.48872 0.14507,0.27975 0.26549,0.52686 0.36813,0.76337 0.10263,0.23652 0.18748,0.46244 0.26141,0.69981 0.0739,0.23738 0.13695,0.4862 0.19592,0.76853 0.059,0.28232 0.11388,0.59814 0.17161,0.96949 0.0358,0.23055 0.0637,0.44202 0.0834,0.63063 0.0197,0.1886 0.0313,0.35435 0.0348,0.49344 0.003,0.1391 -0.001,0.25154 -0.0145,0.33354 -0.0131,0.082 -0.0344,0.13355 -0.0642,0.15088 -0.0171,0.01 -0.17865,0.0181 -0.49973,0.0246 -0.32108,0.007 -0.80169,0.0113 -1.45689,0.0144 -0.65521,0.003 -1.485,0.005 -2.50445,0.005 -1.01945,-5e-5 -2.22856,-0.002 -3.64238,-0.005 l -0.12506,-2.7e-4 -0.12507,-2.7e-4 -0.12506,-2.8e-4 -0.12506,-2.7e-4 -0.0218,-0.12101 -0.0218,-0.12101 -0.0218,-0.12101 -0.0218,-0.12101 c -0.0388,-0.21553 -0.0773,-0.39442 -0.1242,-0.55209 -0.0469,-0.15767 -0.10199,-0.29412 -0.17391,-0.42477 -0.0719,-0.13066 -0.16059,-0.25552 -0.27455,-0.39002 -0.11395,-0.13449 -0.25317,-0.27862 -0.42614,-0.4478 l -0.0694,-0.0679 -0.0694,-0.0679 -0.0694,-0.0679 -0.0694,-0.0679 -0.1464,-0.0564 -0.1464,-0.0564 -0.14639,-0.0564 -0.1464,-0.0564 -0.1464,-0.0564 -0.1464,-0.0564 -0.14639,-0.0564 -0.1464,-0.0564 -0.17471,-0.0186 -0.1747,-0.0186 -0.17471,-0.0186 -0.1747,-0.0186 -0.17471,-0.0186 -0.1747,-0.0186 -0.17471,-0.0186 -0.1747,-0.0186 -1.84833,-5e-4 -1.84831,-5e-4 -1.84832,-5e-4 -1.84831,-4.9e-4 -1.84832,-5e-4 -1.84831,-5e-4 -1.84832,-5e-4 -1.84831,-4.9e-4 -0.0375,0.0319 -0.0375,0.0319 -0.0375,0.032 -0.0375,0.0319 c -0.0206,0.0176 -0.0403,0.0381 -0.0582,0.0601 -0.0179,0.022 -0.0341,0.0456 -0.0477,0.0692 -0.0136,0.0236 -0.0246,0.0474 -0.0322,0.0697 -0.008,0.0224 -0.0118,0.0434 -0.0118,0.0617 0,0.0183 0.011,0.049 0.0308,0.0888 0.0198,0.0398 0.0485,0.0888 0.0839,0.14348 0.0354,0.0547 0.0775,0.11529 0.12417,0.17834 0.0467,0.0631 0.0979,0.12861 0.15164,0.19337 0.13959,0.16837 0.29372,0.35853 0.44939,0.5537 0.15567,0.19517 0.31288,0.39536 0.45866,0.58378 0.14577,0.18841 0.2801,0.36506 0.39,0.51315 0.10991,0.1481 0.19539,0.26764 0.24346,0.34184 0.0226,0.0349 0.0532,0.082 0.0891,0.13727 0.0359,0.0553 0.0771,0.11864 0.12093,0.1861 0.0439,0.0675 0.0904,0.139 0.13693,0.21053 0.0465,0.0715 0.0931,0.14306 0.13704,0.21052 0.22382,0.34365 0.42321,0.65965 0.60335,0.95754 0.18014,0.2979 0.34102,0.5777 0.48782,0.84896 0.1468,0.27127 0.27952,0.53399 0.40333,0.79774 0.12381,0.26374 0.23872,0.52851 0.34988,0.80386 0.14243,0.35278 0.27952,0.70575 0.40744,1.04773 0.12792,0.34198 0.24667,0.67296 0.35243,0.98178 0.10576,0.30881 0.19853,0.59546 0.27446,0.84876 0.0759,0.2533 0.13506,0.47325 0.17353,0.64868 0.0177,0.0805 0.0367,0.16119 0.0561,0.23822 0.0194,0.077 0.039,0.15036 0.0578,0.21603 0.0188,0.0657 0.0368,0.12368 0.0528,0.17007 0.016,0.0464 0.03,0.0812 0.0409,0.10033 0.0109,0.0192 0.0213,0.0427 0.0308,0.0689 0.01,0.0262 0.018,0.0549 0.0252,0.0845 0.007,0.0296 0.013,0.0599 0.017,0.0893 0.004,0.0294 0.006,0.0578 0.006,0.0835 0,0.0257 0.004,0.054 0.0125,0.0832 0.008,0.0292 0.0197,0.0592 0.034,0.0884 0.0144,0.0292 0.0314,0.0574 0.0504,0.0831 0.0189,0.0256 0.0397,0.0486 0.0615,0.0672 l 0.0396,0.0338 0.0396,0.0338 0.0396,0.0338 0.0396,0.0338 1.09599,-0.001 1.09598,-10e-4 1.09599,-0.001 1.09598,-0.001 1.09599,-10e-4 1.096,-0.001 1.09598,-0.001 1.096,-10e-4 0.24665,0.0281 0.24664,0.0281 0.24664,0.0281 0.24665,0.0281 c 0.25339,0.0288 0.5102,0.0612 0.76081,0.0957 0.25061,0.0345 0.49502,0.071 0.72364,0.10792 0.22862,0.037 0.44144,0.0744 0.62886,0.11083 0.18741,0.0364 0.34943,0.0717 0.47644,0.10441 0.0396,0.0102 0.0831,0.0213 0.12794,0.0328 0.0448,0.0114 0.091,0.0232 0.13566,0.0345 0.0447,0.0113 0.088,0.0223 0.12717,0.0322 0.0392,0.01 0.0743,0.0187 0.10251,0.0257 0.13646,0.034 0.30291,0.0798 0.48276,0.13229 0.17984,0.0524 0.37308,0.1115 0.56309,0.17187 0.19001,0.0604 0.37679,0.12206 0.54373,0.17979 0.16694,0.0577 0.31404,0.1115 0.42468,0.15603 0.0678,0.0273 0.1555,0.0666 0.25586,0.1142 0.10036,0.0476 0.21342,0.10357 0.33201,0.16419 0.11859,0.0606 0.24271,0.12591 0.36521,0.19222 0.1225,0.0663 0.24338,0.13363 0.35548,0.19831 l 0.20382,0.11759 0.20382,0.1176 0.20382,0.1176 0.20381,0.11759 0.20459,0.18394 0.20459,0.18394 0.20459,0.18393 0.20459,0.18394 c 0.11252,0.10116 0.22486,0.20453 0.33156,0.30474 0.10672,0.10021 0.2078,0.19728 0.29783,0.28585 0.09,0.0886 0.16901,0.16865 0.23149,0.23488 0.0625,0.0662 0.10849,0.11865 0.13256,0.15186 0.13138,0.18129 0.26625,0.36995 0.39645,0.55415 0.1302,0.18421 0.25573,0.36395 0.36842,0.52739 0.1127,0.16345 0.21257,0.31061 0.29144,0.42963 0.0789,0.11903 0.13675,0.20993 0.16549,0.26087 0.12739,0.22585 0.24157,0.45486 0.34499,0.69484 0.10341,0.23997 0.19605,0.49092 0.28037,0.76066 0.0843,0.26973 0.16031,0.55826 0.23041,0.87339 0.0701,0.31513 0.13434,0.65687 0.19513,1.03303 l 0.0263,0.16282 0.0263,0.16282 0.0263,0.16282 0.0263,0.16282 -0.0123,0.32123 -0.0123,0.32122 -0.0123,0.32122 -0.0123,0.32123 c -0.007,0.17667 -0.017,0.36563 -0.0297,0.55591 -0.0127,0.19028 -0.0279,0.38187 -0.0446,0.56379 -0.0167,0.18193 -0.0348,0.35419 -0.0534,0.50581 -0.0186,0.15161 -0.0377,0.28259 -0.0562,0.38194 -0.0386,0.20682 -0.0998,0.45872 -0.17543,0.73103 -0.0756,0.27231 -0.16567,0.56502 -0.26188,0.85349 -0.0962,0.28846 -0.19862,0.57267 -0.29897,0.82796 -0.10035,0.2553 -0.19866,0.48168 -0.2867,0.65448 -0.0329,0.0646 -0.0743,0.14024 -0.12089,0.22155 -0.0466,0.0813 -0.0984,0.16831 -0.15214,0.25573 -0.0538,0.0874 -0.10947,0.17527 -0.16391,0.25827 -0.0544,0.083 -0.1076,0.16113 -0.15623,0.22914 -0.0486,0.068 -0.0974,0.13637 -0.14382,0.2017 -0.0464,0.0653 -0.0906,0.12763 -0.13012,0.18353 -0.0395,0.0559 -0.0743,0.1054 -0.10213,0.14513 -0.0278,0.0397 -0.0485,0.0697 -0.0598,0.0865 -0.0514,0.0764 -0.12316,0.17679 -0.20401,0.28653 -0.0809,0.10974 -0.17082,0.22887 -0.25866,0.34281 -0.0879,0.11395 -0.17358,0.22272 -0.24598,0.31177 -0.0724,0.089 -0.13147,0.15836 -0.16598,0.19339 -0.14599,0.14818 -0.288,0.28817 -0.4236,0.41781 -0.13561,0.12964 -0.2648,0.24892 -0.38515,0.3557 -0.12034,0.10677 -0.23184,0.20103 -0.33207,0.28062 -0.10022,0.0796 -0.18916,0.14449 -0.26439,0.19257 -0.0483,0.0308 -0.0962,0.063 -0.14148,0.0948 -0.0453,0.0317 -0.088,0.0631 -0.12574,0.0922 -0.0378,0.0291 -0.0706,0.0561 -0.0963,0.079 -0.0257,0.023 -0.0442,0.042 -0.0532,0.0554 -0.009,0.0133 -0.021,0.0261 -0.0349,0.0377 -0.0139,0.0116 -0.0298,0.0221 -0.0465,0.0309 -0.0168,0.009 -0.0345,0.0159 -0.052,0.0208 -0.0176,0.005 -0.0351,0.008 -0.0515,0.008 -0.0164,0 -0.0321,0.003 -0.0463,0.009 -0.0143,0.006 -0.0271,0.0137 -0.0379,0.0237 -0.0108,0.01 -0.0196,0.0219 -0.0256,0.035 -0.006,0.0132 -0.009,0.0276 -0.009,0.0428 0,0.0151 -0.0145,0.0384 -0.0405,0.0674 -0.0261,0.029 -0.0638,0.0638 -0.1104,0.102 -0.0466,0.0382 -0.10196,0.0799 -0.16339,0.12279 -0.0614,0.0429 -0.12886,0.0869 -0.19951,0.12976 -0.0707,0.0429 -0.14089,0.0861 -0.20735,0.12749 -0.0665,0.0414 -0.12915,0.081 -0.18472,0.11665 -0.0556,0.0356 -0.104,0.0673 -0.14197,0.0929 -0.038,0.0256 -0.0654,0.045 -0.0791,0.0563 -0.0136,0.0112 -0.0312,0.0219 -0.0513,0.0316 -0.0201,0.01 -0.0427,0.0185 -0.0664,0.0259 -0.0237,0.007 -0.0484,0.0134 -0.0729,0.0175 -0.0244,0.004 -0.0485,0.006 -0.0707,0.006 -0.0223,0 -0.0474,0.004 -0.0739,0.0103 -0.0264,0.007 -0.0541,0.0162 -0.0814,0.0281 -0.0272,0.0118 -0.0541,0.026 -0.079,0.0416 -0.0248,0.0156 -0.0476,0.0328 -0.0667,0.0508 -0.0463,0.0436 -0.10568,0.0885 -0.17923,0.13518 -0.0736,0.0467 -0.16127,0.0952 -0.26416,0.14601 -0.1029,0.0508 -0.22099,0.10394 -0.3553,0.15989 -0.13431,0.0559 -0.28485,0.11473 -0.45265,0.17685 -0.0761,0.0282 -0.15134,0.0569 -0.22213,0.0848 -0.0708,0.0278 -0.13718,0.0548 -0.19561,0.0793 -0.0584,0.0245 -0.10891,0.0467 -0.14792,0.0649 -0.039,0.0183 -0.0665,0.0326 -0.0791,0.0417 -0.056,0.0404 -0.18634,0.0956 -0.36961,0.15961 -0.18327,0.064 -0.41945,0.13688 -0.6871,0.21248 -0.26764,0.0756 -0.56676,0.15396 -0.87588,0.22901 -0.30913,0.0751 -0.62827,0.1468 -0.93597,0.20918 -0.23922,0.0485 -0.5246,0.0982 -0.83511,0.14658 -0.31052,0.0483 -0.64617,0.0953 -0.98593,0.13813 -0.33976,0.0429 -0.68364,0.0817 -1.0106,0.11377 -0.32696,0.0321 -0.63701,0.0575 -0.90912,0.0735 -0.14131,0.008 -0.5317,0.0158 -1.11587,0.0222 -0.58417,0.006 -1.36212,0.0117 -2.27855,0.0156 -0.91644,0.004 -1.97135,0.007 -3.10944,0.008 -1.13809,0.001 -2.35936,5.3e-4 -3.60851,-0.002 l -2.27117,-0.004 -2.27117,-0.004 -2.27117,-0.004 -2.27117,-0.004 -0.28775,-0.0327 -0.28775,-0.0327 -0.28776,-0.0327 -0.28775,-0.0327 c -0.15826,-0.018 -0.3232,-0.0353 -0.48583,-0.051 -0.16263,-0.0158 -0.32295,-0.0301 -0.47196,-0.0422 -0.14902,-0.0121 -0.28673,-0.022 -0.40414,-0.029 -0.11741,-0.007 -0.21453,-0.011 -0.28235,-0.0114 -0.0678,-3.8e-4 -0.15454,0.003 -0.25317,0.0102 -0.0986,0.007 -0.20916,0.0171 -0.32465,0.0297 -0.11548,0.0126 -0.23591,0.0278 -0.35432,0.0447 -0.11841,0.0169 -0.23479,0.0355 -0.34219,0.055 l -0.19525,0.0356 -0.19526,0.0356 -0.19527,0.0356 -0.19525,0.0356 -2.02924,0.008 -2.02923,0.008 -2.02924,0.008 -2.02923,0.008 -2.02923,0.008 -2.02924,0.008 -2.02923,0.008 -2.029236,0.008 0.0047,-0.93531 0.0047,-0.93532 0.0047,-0.93532 0.0047,-0.93532 0.0047,-0.93532 0.0047,-0.93532 0.0047,-0.93531 0.0047,-0.93532 2.024526,-0.0112 2.02453,-0.0112 2.02453,-0.0112 2.02453,-0.0112 2.02453,-0.0112 2.02453,-0.0112 2.02453,-0.0112 2.02453,-0.0112 0.15415,-0.0229 0.15415,-0.023 0.15415,-0.023 0.15415,-0.023 c 0.42205,-0.0628 0.83259,-0.13577 1.22947,-0.21821 0.39688,-0.0824 0.78008,-0.17439 1.14745,-0.27524 0.36737,-0.10085 0.7189,-0.2106 1.05241,-0.32867 0.33352,-0.11807 0.64904,-0.24446 0.94436,-0.37855 0.21357,-0.097 0.43256,-0.20961 0.65034,-0.3334 0.21778,-0.12378 0.43434,-0.25872 0.64303,-0.4003 0.20869,-0.14158 0.40951,-0.2898 0.59581,-0.44015 0.1863,-0.15034 0.35808,-0.30282 0.50869,-0.45291 0.23198,-0.23118 0.42705,-0.43598 0.59729,-0.63241 0.17025,-0.19643 0.31567,-0.38449 0.44837,-0.58221 0.1327,-0.19772 0.25267,-0.4051 0.37201,-0.64015 0.11934,-0.23505 0.23805,-0.49777 0.36822,-0.8062 0.094,-0.22277 0.17621,-0.43825 0.2475,-0.65044 0.0713,-0.21218 0.1317,-0.42106 0.18218,-0.63065 0.0505,-0.20958 0.091,-0.41987 0.12266,-0.63485 0.0316,-0.21498 0.0542,-0.43465 0.0689,-0.66302 l 0.0131,-0.20353 0.013,-0.20354 0.0131,-0.20353 0.013,-0.20353 -0.0351,-0.0274 -0.0351,-0.0274 -0.0351,-0.0274 -0.0351,-0.0274 -0.0351,-0.0274 -0.0351,-0.0274 -0.0351,-0.0274 -0.0351,-0.0274 -1.17528,-0.006 -1.17529,-0.006 -1.17528,-0.006 -1.17528,-0.006 -1.17528,-0.006 -1.17528,-0.006 -1.17528,-0.006 -1.17529,-0.006 -0.22608,-0.0285 -0.22609,-0.0285 -0.22609,-0.0285 -0.22609,-0.0285 c -0.29229,-0.0369 -0.57915,-0.0791 -0.85522,-0.12551 -0.27606,-0.0464 -0.54134,-0.0971 -0.79046,-0.15076 -0.24913,-0.0537 -0.4821,-0.11043 -0.69356,-0.16907 -0.21147,-0.0586 -0.40143,-0.11918 -0.56452,-0.18047 -0.12511,-0.047 -0.28277,-0.10927 -0.45181,-0.17781 -0.16903,-0.0685 -0.34943,-0.14338 -0.52004,-0.21555 -0.1706,-0.0722 -0.33141,-0.14167 -0.46124,-0.19954 -0.12984,-0.0579 -0.2287,-0.10413 -0.27541,-0.12981 -0.0971,-0.0534 -0.19501,-0.11142 -0.28774,-0.16991 -0.0927,-0.0585 -0.18033,-0.11742 -0.25699,-0.1726 -0.0767,-0.0552 -0.14235,-0.10664 -0.19127,-0.15014 -0.0489,-0.0435 -0.0811,-0.0791 -0.0906,-0.1025 -0.006,-0.0155 -0.0156,-0.0303 -0.0269,-0.0438 -0.0113,-0.0135 -0.0247,-0.0257 -0.0392,-0.0359 -0.0145,-0.0102 -0.0303,-0.0185 -0.0463,-0.0243 -0.016,-0.006 -0.0323,-0.009 -0.0481,-0.009 -0.0429,0 -0.15994,-0.0825 -0.31428,-0.21163 -0.15434,-0.12916 -0.34601,-0.30504 -0.53821,-0.49186 -0.1922,-0.18682 -0.38493,-0.38459 -0.54141,-0.55755 -0.15649,-0.17296 -0.27672,-0.32111 -0.32392,-0.4087 -0.0226,-0.042 -0.0497,-0.0875 -0.0793,-0.13376 -0.0296,-0.0463 -0.0617,-0.0934 -0.0944,-0.13863 -0.0327,-0.0452 -0.0659,-0.0885 -0.0977,-0.12713 -0.0318,-0.0386 -0.0621,-0.0726 -0.0891,-0.0993 -0.0593,-0.0585 -0.14415,-0.18065 -0.23933,-0.33677 -0.0952,-0.15611 -0.20066,-0.3462 -0.30113,-0.54061 -0.10046,-0.19442 -0.1959,-0.39317 -0.27101,-0.56661 -0.0751,-0.17344 -0.12988,-0.32157 -0.14899,-0.41474 -0.003,-0.016 -0.01,-0.041 -0.0187,-0.0726 -0.009,-0.0316 -0.0203,-0.0697 -0.0334,-0.11181 -0.0131,-0.0421 -0.0277,-0.0882 -0.0433,-0.13577 -0.0156,-0.0476 -0.032,-0.0966 -0.0485,-0.14449 -0.0419,-0.12164 -0.0813,-0.248 -0.11778,-0.37694 -0.0365,-0.12894 -0.0699,-0.26045 -0.1,-0.39238 -0.03,-0.13194 -0.0566,-0.26431 -0.0793,-0.39496 -0.0226,-0.13065 -0.0414,-0.25959 -0.0556,-0.38466 -0.007,-0.0586 -0.0129,-0.19878 -0.0183,-0.40192 -0.005,-0.20314 -0.0101,-0.46919 -0.0139,-0.77945 -0.004,-0.31026 -0.006,-0.66472 -0.008,-1.04465 -0.002,-0.37994 -0.002,-0.78535 -9.3e-4,-1.19752 l 0.002,-0.7494 0.002,-0.74939 0.002,-0.7494 0.002,-0.74939 0.0318,-0.18965 0.0318,-0.18965 0.0318,-0.18965 0.0318,-0.18965 c 0.0175,-0.10431 0.0411,-0.22314 0.0687,-0.34861 0.0276,-0.12547 0.0592,-0.25758 0.0928,-0.38842 0.0336,-0.13084 0.0692,-0.26042 0.10474,-0.38085 0.0356,-0.12042 0.0711,-0.23169 0.10454,-0.3259 0.0335,-0.0942 0.0654,-0.18606 0.0945,-0.27142 0.0291,-0.0854 0.0553,-0.16425 0.0774,-0.23253 0.0221,-0.0683 0.0399,-0.12595 0.0523,-0.1689 0.0124,-0.043 0.0192,-0.0712 0.0192,-0.0806 0,-0.009 0.008,-0.0349 0.0231,-0.0729 0.0149,-0.038 0.0363,-0.0886 0.0628,-0.14813 0.0265,-0.0595 0.058,-0.12798 0.093,-0.20178 0.035,-0.0738 0.0734,-0.15297 0.11357,-0.23389 l 0.0731,-0.14713 0.0731,-0.14712 0.0731,-0.14713 0.0731,-0.14712 -0.006,-0.0614 -0.006,-0.0614 -0.006,-0.0614 -0.006,-0.0614 -0.006,-0.0614 -0.006,-0.0614 -0.006,-0.0614 -0.006,-0.0614 -1.06879,-0.005 -1.06878,-0.005 -1.06879,-0.005 -1.06879,-0.005 c -5.923503,0.40139 -15.580384,0.0975 -22.385423,0.13782 z m 60.650722,36.1971 c 0.34141,-0.0424 0.6159,-0.0789 0.85097,-0.11634 0.23506,-0.0375 0.4307,-0.0759 0.61443,-0.12228 0.18372,-0.0464 0.35554,-0.10069 0.54294,-0.16988 0.1874,-0.0692 0.39038,-0.15325 0.63645,-0.25913 0.0479,-0.0206 0.0954,-0.0404 0.14026,-0.0584 0.0448,-0.018 0.087,-0.0343 0.12426,-0.0481 0.0373,-0.0138 0.0696,-0.025 0.0948,-0.0328 0.0252,-0.008 0.0432,-0.0123 0.0518,-0.0126 0.0305,-9.6e-4 0.10812,-0.0477 0.21257,-0.12315 0.10445,-0.0755 0.23576,-0.17974 0.37375,-0.2958 0.13799,-0.11605 0.28266,-0.2439 0.41382,-0.36657 0.13116,-0.12267 0.2488,-0.24016 0.33276,-0.33549 0.0999,-0.11349 0.19732,-0.24171 0.28947,-0.37957 0.0921,-0.13786 0.17907,-0.28536 0.25812,-0.43738 0.079,-0.15202 0.1502,-0.30857 0.21083,-0.46454 0.0606,-0.15597 0.11072,-0.31136 0.14762,-0.46107 0.0144,-0.0586 0.03,-0.12021 0.0459,-0.18148 0.0158,-0.0613 0.0319,-0.12217 0.0472,-0.17925 0.0153,-0.0571 0.03,-0.11034 0.043,-0.15634 0.013,-0.046 0.0244,-0.0847 0.0333,-0.11278 0.009,-0.028 0.0153,-0.0774 0.0194,-0.14253 0.004,-0.0652 0.006,-0.14609 0.005,-0.23733 -6.2e-4,-0.0912 -0.004,-0.19278 -0.009,-0.29911 -0.005,-0.10633 -0.0128,-0.21744 -0.0226,-0.32784 l -0.0178,-0.20073 -0.0178,-0.20073 -0.0178,-0.20073 -0.0178,-0.20073 -0.0402,-0.0968 -0.0402,-0.0968 -0.0402,-0.0968 -0.0402,-0.0968 c -0.0697,-0.16794 -0.14031,-0.31988 -0.21389,-0.45882 -0.0736,-0.13894 -0.15015,-0.26489 -0.23183,-0.38086 -0.0817,-0.11596 -0.16846,-0.22194 -0.26248,-0.32095 -0.094,-0.099 -0.19528,-0.19105 -0.30588,-0.27913 -0.11662,-0.0929 -0.21219,-0.16752 -0.29772,-0.23077 -0.0855,-0.0632 -0.16099,-0.11507 -0.2374,-0.16227 -0.0764,-0.0472 -0.15375,-0.0898 -0.24303,-0.13451 -0.0893,-0.0447 -0.19047,-0.0916 -0.31458,-0.14747 -0.14742,-0.0663 -0.27086,-0.12012 -0.38303,-0.16535 -0.11216,-0.0452 -0.21304,-0.0819 -0.31531,-0.11399 -0.10227,-0.0321 -0.20593,-0.0596 -0.32366,-0.0865 -0.11773,-0.0269 -0.24954,-0.0532 -0.40811,-0.0829 l -0.15631,-0.0293 -0.15632,-0.0293 -0.15631,-0.0293 -0.15632,-0.0293 -0.90436,-0.0106 -0.90435,-0.0106 -0.90436,-0.0106 -0.90436,-0.0106 -0.90436,-0.0106 -0.90435,-0.0106 -0.90436,-0.0106 -0.90436,-0.0106 -0.0371,0.0267 -0.0371,0.0267 -0.0371,0.0267 -0.0371,0.0267 c -0.0429,0.0309 -0.083,0.082 -0.11913,0.14914 -0.0361,0.0671 -0.0682,0.15021 -0.095,0.24508 -0.0269,0.0949 -0.0485,0.2015 -0.0638,0.31567 -0.0153,0.11417 -0.0241,0.23587 -0.0254,0.36089 -0.002,0.18878 -0.0311,0.45237 -0.0819,0.76521 -0.0508,0.31285 -0.12309,0.67495 -0.2111,1.06076 -0.088,0.38581 -0.19173,0.79532 -0.30531,1.20299 -0.11359,0.40766 -0.23706,0.81348 -0.36457,1.1919 -0.0687,0.20403 -0.17375,0.46917 -0.29799,0.75971 -0.12423,0.29055 -0.26771,0.6065 -0.41341,0.91217 -0.14569,0.30567 -0.29361,0.60104 -0.42673,0.85044 -0.13313,0.24939 -0.25146,0.4528 -0.33799,0.57452 -0.0377,0.0531 -0.0738,0.10692 -0.10659,0.15873 -0.0328,0.0518 -0.0624,0.1016 -0.0873,0.14667 -0.0249,0.0451 -0.045,0.0854 -0.059,0.1183 -0.0139,0.0329 -0.0217,0.0583 -0.0217,0.0736 0,0.0153 0.004,0.0337 0.0103,0.0538 0.007,0.0202 0.0162,0.0421 0.028,0.0644 0.0118,0.0223 0.0258,0.0451 0.0414,0.0669 0.0155,0.0218 0.0326,0.0427 0.0505,0.0613 l 0.0325,0.0339 0.0325,0.0339 0.0325,0.0339 0.0325,0.0339 1.02169,0.002 1.02168,0.002 1.02168,0.002 1.02169,0.002 1.02168,0.002 1.02168,0.002 1.02168,0.002 1.02168,0.002 0.22586,-0.0281 0.22586,-0.0281 0.22585,-0.0281 z m -16.47504,-16.54163 c 0.019,3.2e-4 0.0407,-0.003 0.0638,-0.009 0.0231,-0.006 0.0474,-0.0146 0.0716,-0.0254 0.0242,-0.0108 0.0483,-0.0238 0.0708,-0.0382 0.0225,-0.0144 0.0433,-0.0304 0.0611,-0.0471 l 0.0323,-0.0304 0.0323,-0.0304 0.0323,-0.0304 0.0323,-0.0304 -0.0121,-0.0519 -0.0121,-0.0518 -0.0121,-0.0518 -0.0121,-0.0519 c -0.0483,-0.20655 -0.13218,-0.46857 -0.24005,-0.7598 -0.10787,-0.29124 -0.23969,-0.61168 -0.38374,-0.93507 -0.14406,-0.32338 -0.30037,-0.6497 -0.4572,-0.95268 -0.15684,-0.30298 -0.31421,-0.58261 -0.46042,-0.81263 -0.13268,-0.20874 -0.30551,-0.4655 -0.49541,-0.73871 -0.18991,-0.27321 -0.39687,-0.56289 -0.5978,-0.83746 -0.20094,-0.27457 -0.39584,-0.53404 -0.56162,-0.74686 -0.16579,-0.21281 -0.30244,-0.37898 -0.38689,-0.46693 -0.1586,-0.16519 -0.35721,-0.36334 -0.57249,-0.57268 -0.21528,-0.20934 -0.44722,-0.42987 -0.67249,-0.63985 -0.22527,-0.20998 -0.44387,-0.4094 -0.63245,-0.5765 -0.18859,-0.16711 -0.34716,-0.3019 -0.45239,-0.38263 -0.12848,-0.0986 -0.28103,-0.20937 -0.44284,-0.32268 -0.16181,-0.11332 -0.33289,-0.22916 -0.49843,-0.33781 -0.16554,-0.10864 -0.32556,-0.21009 -0.46524,-0.29464 -0.13968,-0.0845 -0.25902,-0.15219 -0.34324,-0.19322 -0.0352,-0.0171 -0.0732,-0.0335 -0.11184,-0.0483 -0.0387,-0.0149 -0.0779,-0.0283 -0.11557,-0.0396 -0.0376,-0.0113 -0.0736,-0.0204 -0.10567,-0.0267 -0.0321,-0.006 -0.0602,-0.01 -0.0821,-0.01 -0.0611,0 -0.15065,0.0399 -0.25458,0.10688 -0.10393,0.067 -0.22229,0.16115 -0.34111,0.26969 -0.11883,0.10853 -0.23813,0.23145 -0.34395,0.35603 -0.10582,0.12458 -0.19816,0.25081 -0.26308,0.36595 -0.11805,0.20937 -0.21459,0.38408 -0.29504,0.53613 -0.0804,0.15206 -0.14481,0.28145 -0.19851,0.4002 -0.0537,0.11875 -0.0968,0.22684 -0.13457,0.33629 -0.0378,0.10945 -0.0704,0.22026 -0.10322,0.34443 l -0.0336,0.12708 -0.0336,0.12709 -0.0336,0.12709 -0.0336,0.12709 v 0.4951 0.49511 0.4951 0.49511 0.4951 0.49511 0.4951 0.49511 l 0.0345,0.10387 0.0345,0.10387 0.0345,0.10387 0.0345,0.10388 c 0.0464,0.13949 0.11627,0.29502 0.20143,0.45462 0.0852,0.15961 0.18557,0.32329 0.29301,0.47911 0.10744,0.15582 0.22191,0.30376 0.33516,0.43189 0.11325,0.12812 0.22529,0.23642 0.32787,0.31296 0.15121,0.11282 0.32742,0.21668 0.52497,0.31047 0.19755,0.0938 0.41645,0.17749 0.65305,0.25001 0.23659,0.0725 0.4909,0.13385 0.75926,0.18287 0.26837,0.049 0.55079,0.0857 0.84364,0.10901 0.11209,0.009 0.28614,0.0166 0.50466,0.023 0.21852,0.006 0.4815,0.0113 0.77145,0.0147 0.28995,0.003 0.60687,0.005 0.93325,0.005 0.32639,0 0.66225,-0.002 0.99008,-0.006 0.32782,-0.004 0.64464,-0.007 0.93663,-0.0105 0.292,-0.003 0.55918,-0.006 0.78776,-0.008 0.22857,-0.002 0.41854,-0.004 0.55611,-0.005 0.13757,-0.001 0.22274,-0.002 0.24171,-0.001 z"
       id="path76"
       sodipodi:nodetypes="cscccccccscssssssscccccccsssssssscssssssssccccccccccccccccsssssssssssssssssssssssssssssscssssscccccccssssscccccccccccccccccccccccccccccccssssscssssssssssssssssssssssssscssssscccccccccccccccssssssssssssssssscccccccssssssssssssscccccccssssssssssssssssssssssssssssssssssscssssssssssssssssssssssssssssssssssssccccccccssssssssscccccccccccccccccccccccccccccccssssssssssssssssscccccccccccccccccccccccsssssssssssscssssssssssssssscssssssssssccccccccccssssssssssssccccccccccccccccccssssssssssssssssssssssssccccccccssssssssssssscccccccccccccccsssssssssssssssssccsscccccccccccccccsssssscccccccssssssssssssssssssssssssssssscccccccccccccccssssssssssssssssss"
       inkscape:label="DS" />
    <path
       style="fill:#0a3161;fill-opacity:1;stroke-width:0.301588"
       d="m 98.242819,112.49554 c -0.01925,0.7091 -0.02177,1.99626 -0.02177,4.38522 0,1.52954 -0.0077,2.81828 -0.02098,3.72793 -0.01334,0.90965 -0.03234,1.4402 -0.05494,1.45337 -0.0278,0.0162 -1.656355,0.0328 -3.520408,0.0426 -1.864049,0.01 -3.963597,0.0128 -4.933381,0.002 l -0.09249,-8.3e-4 -0.09249,-10e-4 v -2.57242 -2.57234 c 0,-2.28687 -0.0037,-3.57642 -0.02152,-4.30778 -0.01793,-0.73135 -0.05024,-0.90452 -0.10766,-0.95862 -0.05813,-0.0548 -0.388019,-0.0852 -2.041412,-0.10182 -1.653388,-0.0166 -4.630288,-0.0195 -9.982443,-0.0192 -3.67211,2.1e-4 -6.73569,0.008 -8.953796,0.0215 -2.218113,0.0137 -3.590754,0.0333 -3.880986,0.0575 -1.366597,0.11394 -2.659928,0.55545 -3.761475,1.24981 -1.101551,0.69436 -2.011319,1.64157 -2.610788,2.76694 -0.09764,0.1833 -0.212639,0.42399 -0.319254,0.66412 -0.106619,0.24012 -0.204857,0.47968 -0.268983,0.66071 l -0.116591,0.32916 -0.116595,0.32914 -0.0012,4.02725 -0.0012,4.02724 -0.0012,4.02724 -0.0012,4.02724 0.09727,0.34852 0.09727,0.34851 c 0.342354,1.22666 0.990359,2.31815 1.861331,3.19155 0.870976,0.87339 1.964919,1.52869 3.199146,1.883 0.691407,0.19847 0.931314,0.29486 2.660824,0.34147 1.729514,0.0466 4.948634,0.0434 11.598472,0.0428 3.828673,-3.7e-4 6.936625,-0.008 9.09694,-0.0205 2.160312,-0.0129 3.372993,-0.0314 3.411115,-0.054 0.05336,-0.0318 0.0851,-0.19734 0.10643,-0.8279 0.02131,-0.63055 0.03226,-1.72609 0.04395,-3.61775 0.0096,-1.55533 0.0098,-2.66002 -8.26e-4,-3.39023 -0.01041,-0.7302 -0.03135,-1.08592 -0.06394,-1.14328 l -0.04581,-0.0806 -0.04581,-0.0806 -3.400174,-4.2e-4 -3.400174,-4.1e-4 c -1.870098,-3.2e-4 -3.581834,-0.008 -4.833168,-0.019 -1.251334,-0.0114 -2.042267,-0.0271 -2.070746,-0.0441 -0.04072,-0.0243 -0.06547,-0.24023 -0.07794,-0.81871 -0.01246,-0.57849 -0.01268,-1.51958 -0.0043,-2.99437 l 0.01066,-1.87557 0.01069,-1.87557 5.582727,-0.01 5.582731,-0.01 c 3.801518,-0.007 6.605614,-0.005 8.47291,0.005 1.867296,0.01 2.797788,0.0286 2.85212,0.056 0.07846,0.0396 0.11835,0.11001 0.138488,1.6577 0.02012,1.54769 0.02049,4.57262 0.01999,10.52112 -3.1e-4,3.32705 -0.0062,6.37124 -0.01537,8.59566 -0.0092,2.22441 -0.02173,3.62904 -0.03536,3.67696 l -0.02478,0.0871 -0.02478,0.0871 -8.905191,-0.005 -8.90519,-0.004 c -4.897852,-0.002 -9.401319,-0.0122 -12.711407,-0.0258 -3.31009,-0.0136 -5.426805,-0.0494 -5.551154,-0.0494 h -4e-6 -4e-6 c -1.521956,0 -2.763643,-0.50567 -3.929638,-0.92235 -1.166082,-0.41665 -2.256389,-0.96694 -3.475576,-1.72394 -1.525542,-0.94721 -2.875964,-2.2331 -3.948893,-3.71617 -1.072925,-1.48307 -1.868362,-3.16332 -2.283929,-4.89924 -0.166185,-0.6942 -0.253836,-1.20026 -0.295813,-2.66411 -0.04197,-1.46385 -0.03825,-3.88549 -0.02177,-8.41081 0.01743,-4.77552 0.01875,-7.02061 0.08505,-8.29845 0.06631,-1.27784 0.197599,-1.58843 0.474992,-2.49493 0.29283,-0.95695 0.672419,-1.84296 1.16419,-2.70246 0.491768,-0.8595 1.095723,-1.6925 1.837282,-2.54343 1.197386,-1.37398 2.669558,-2.51431 4.37594,-3.39992 1.706381,-0.8856 3.646974,-1.5165 5.7812,-1.87162 2.50958,-0.4511 9.036052,-0.29214 12.542279,-0.29056 5.810204,0.006 10.598975,0.0122 14.530295,0.0207 3.931319,0.008 7.005187,0.0188 9.385573,0.0319"
       id="path6"
       inkscape:label="G"
       sodipodi:nodetypes="cscscccccscssscssssscccccccsssssccsscscccccsssccccssssssccccsscscsssscssssssccc" />
  </g>
</svg>
